<svg width="114" height="31" viewBox="0 0 114 31" fill="none" xmlns="http://www.w3.org/2000/svg">
<g clip-path="url(#clip0_0_88)">
<path d="M28.6256 21.074H23.533L23.2103 21.9246C23.1817 22.0262 23.1471 22.1261 23.1067 22.2236C23.0688 22.3152 23.034 22.4075 23.0031 22.499L22.3577 24.223C22.3427 24.3303 22.3846 24.369 22.4851 24.3382C22.6191 24.3089 22.7586 24.3168 22.8884 24.3611L22.9572 24.384V25.0278H19.4085V24.5907L19.4781 24.5678C19.601 24.5379 19.6816 24.5379 19.7201 24.5678C19.7581 24.5986 19.7929 24.5907 19.8237 24.545L25.7451 9.74048H27.3815L27.75 10.6376L33.3029 24.3382C33.3496 24.4171 33.3954 24.4376 33.4413 24.4069C33.4872 24.3761 33.5797 24.3769 33.7181 24.4069L33.8099 24.4298V25.005H29.248V24.3611L29.3397 24.3382C29.539 24.2925 29.6851 24.2885 29.7779 24.3264C29.8707 24.3643 29.8936 24.3069 29.8467 24.1544L29.4781 23.1886C29.4012 23.0208 29.3245 22.833 29.248 22.6253C29.1715 22.4175 29.0793 22.1839 28.9712 21.9246L28.6256 21.074ZM27.8394 19.0944L26.0204 14.4738L24.2709 19.0944H27.8394Z" fill="#1E1E1E"/>
<path d="M45.7563 25.005L43.7284 24.9821L39.1199 18.5681H38.9356V23.9477C38.9296 24.022 38.9416 24.0967 38.9704 24.1655C38.9813 24.1841 38.9962 24.2001 39.0142 24.2121C39.0321 24.2241 39.0526 24.2319 39.074 24.2349C39.1312 24.2429 39.1892 24.2429 39.2464 24.2349C39.3362 24.2296 39.4261 24.2414 39.5114 24.2696L39.6039 24.2925V24.9821H34.9954V24.2925L35.1109 24.2696C35.3102 24.2231 35.4525 24.212 35.5372 24.2349C35.6218 24.2578 35.6787 24.2231 35.7096 24.1315V10.7063C35.6787 10.6148 35.621 10.58 35.5372 10.6029C35.4533 10.6258 35.3102 10.6148 35.1109 10.5682L34.9954 10.5453V9.85571H40.6637C41.6007 9.85571 42.3916 9.92857 43.0364 10.0743C43.6812 10.22 44.2085 10.4614 44.6182 10.7986C45.0294 11.1428 45.3332 11.5973 45.4937 12.1084C45.6698 12.6449 45.7581 13.304 45.7586 14.0857C45.7586 15.235 45.4821 16.1392 44.929 16.7983C44.3752 17.4589 43.6486 17.9533 42.83 18.2265L45.5024 21.9278C45.7486 22.2644 45.9595 22.5556 46.1351 22.8012C46.3107 23.0469 46.4604 23.2539 46.5843 23.4222L47.0684 24.0881C47.1443 24.1802 47.197 24.2417 47.2265 24.2728C47.2379 24.2862 47.2519 24.2972 47.2677 24.3051C47.2835 24.313 47.3007 24.3175 47.3183 24.3185C47.357 24.3177 47.3956 24.3138 47.4338 24.3067C47.5045 24.303 47.5753 24.3149 47.641 24.3414L47.7327 24.3643V25.0081L45.7563 25.005ZM38.9356 16.6145H39.1199C39.5106 16.6152 39.9004 16.5766 40.2833 16.4993C40.6389 16.4299 40.9788 16.2962 41.2861 16.1048C41.5695 15.9296 41.8066 15.689 41.9774 15.4033C42.1557 15.0851 42.2443 14.7247 42.2336 14.3603C42.2336 13.425 42.057 12.7698 41.7037 12.3948C41.3505 12.0197 40.7273 11.8333 39.8341 11.8354H38.9356V16.6145Z" fill="#1E1E1E"/>
<path d="M60.5539 24.1773L60.5768 24.1315C60.3355 24.3373 60.0633 24.504 59.7701 24.6254C59.4198 24.7688 59.0561 24.8766 58.6842 24.9474C58.2086 25.0394 57.7275 25.1008 57.244 25.1312C56.6983 25.1691 56.0656 25.1883 55.3458 25.1888C53.9175 25.1888 52.7164 25.0623 51.7425 24.8093C50.7687 24.5563 49.9804 24.1426 49.3778 23.5681C48.7751 22.9937 48.3404 22.2465 48.0736 21.3265C47.8068 20.4065 47.6734 19.2724 47.6734 17.9243C47.6734 16.3772 47.8105 15.0709 48.0847 14.0052C48.3588 12.9395 48.8091 12.0773 49.4355 11.4187C50.0603 10.7607 50.8752 10.2857 51.8802 9.99376C52.8851 9.70182 54.1242 9.55612 55.5973 9.55664C56.2886 9.55664 56.8915 9.57216 57.4061 9.60319C57.8516 9.62494 58.2946 9.68247 58.7309 9.7752C59.0526 9.84361 59.3657 9.94789 59.6641 10.0861C59.9075 10.2013 60.1296 10.3565 60.3213 10.5453L60.436 13.6028C60.3716 13.6169 60.3059 13.6246 60.2399 13.6256H59.8373C59.7687 13.6274 59.7004 13.6356 59.6333 13.6501L59.3802 13.3976C58.7338 12.7527 58.2118 12.2885 57.8142 12.005C57.4167 11.7215 57.0402 11.5416 56.6848 11.4653C56.3272 11.3978 55.9636 11.3668 55.5997 11.373C54.7561 11.373 54.038 11.4687 53.4453 11.6602C52.8899 11.8286 52.3941 12.1516 52.0162 12.5912C51.6555 13.0205 51.3945 13.5838 51.2332 14.2813C51.0719 14.9788 50.9912 15.8331 50.9912 16.8441C50.9912 18.0539 51.0679 19.0796 51.2213 19.9213C51.3748 20.7629 51.6215 21.4423 51.9616 21.9593C52.2841 22.4602 52.7536 22.8495 53.3061 23.0742C53.8666 23.3041 54.5463 23.419 55.3451 23.419C56.0669 23.419 56.6814 23.3422 57.1886 23.1886L57.4654 23.12C57.8366 22.9722 58.1917 22.7871 58.5252 22.5677C58.7358 22.4207 58.9358 22.2594 59.1239 22.0848C59.3238 21.9007 59.5389 21.6861 59.7693 21.4409C59.8334 21.3601 59.9027 21.2834 59.9765 21.2113H60.1616C60.2236 21.2134 60.2853 21.2211 60.3459 21.2342H60.5412C60.6072 21.2357 60.6728 21.2434 60.7374 21.2571L60.5539 24.1773Z" fill="#1E1E1E"/>
<path d="M70.9842 21.074H65.8916L65.5689 21.9246C65.5399 22.0261 65.5053 22.1259 65.4653 22.2236C65.4266 22.3152 65.3925 22.4075 65.3617 22.499L64.7163 24.223C64.7013 24.3303 64.7432 24.369 64.8437 24.3382C64.9774 24.3088 65.1167 24.3168 65.2462 24.3611L65.3158 24.384V25.0278H61.7687V24.5907L61.8383 24.5678C61.9609 24.5379 62.0415 24.5379 62.0755 24.5678C62.1096 24.5978 62.1483 24.5907 62.1799 24.545L68.1037 9.74048H69.7401L70.1086 10.6376L75.6615 24.3382C75.7082 24.4171 75.754 24.4376 75.7999 24.4069C75.8458 24.3761 75.9383 24.3769 76.0767 24.4069L76.1685 24.4298V25.005H71.6066V24.3611L71.6983 24.3382C71.8976 24.2925 72.0437 24.2885 72.1365 24.3264C72.2293 24.3643 72.2522 24.3069 72.2053 24.1544L71.8367 23.1886C71.7576 23.0206 71.6833 22.8328 71.6066 22.6253C71.5299 22.4177 71.4373 22.185 71.3298 21.9246L70.9842 21.074ZM70.2004 19.0944L68.3813 14.4738L66.6295 19.0944H70.2004Z" fill="#1E1E1E"/>
<path d="M80.656 25.005L79.9442 24.9593H77.6142V24.2697L77.7297 24.246C77.929 24.2002 78.0711 24.1889 78.156 24.2121C78.2406 24.235 78.2975 24.2002 78.3292 24.1087V10.6835C78.2975 10.5919 78.2406 10.5572 78.156 10.5801C78.0713 10.603 77.929 10.5919 77.7297 10.5454L77.6142 10.5225V9.83289H83.3292C84.8503 9.83289 86.1329 9.92862 87.1769 10.1201C88.2209 10.3116 89.0645 10.6603 89.7077 11.1663C90.3531 11.6718 90.8179 12.3654 91.1021 13.247C91.3863 14.1286 91.5284 15.2595 91.5284 16.6398C91.5284 18.2794 91.3966 19.6281 91.1329 20.6859C90.8693 21.7437 90.4417 22.5809 89.8501 23.1974C89.2506 23.8176 88.4671 24.262 87.4996 24.5308C86.532 24.7996 85.3491 24.9574 83.9508 25.0043H80.656V25.005ZM81.5544 22.982H83.882C84.5549 22.9674 85.2237 22.8747 85.8751 22.7058C86.3863 22.5737 86.8472 22.294 87.1998 21.9018C87.5373 21.5183 87.7793 20.9973 87.9259 20.3388C88.0724 19.6802 88.1455 18.8386 88.1449 17.8139C88.1449 16.573 88.045 15.5615 87.8452 14.7793C87.6453 13.9971 87.319 13.3803 86.8661 12.929C86.4126 12.4772 85.8213 12.1668 85.0921 11.998C84.3629 11.8291 83.4665 11.7447 82.4031 11.7447H81.5505L81.5544 22.982Z" fill="#1E1E1E"/>
<path d="M94.9355 25.005L93.3111 24.9592H92.6198V24.2696L92.7345 24.246C92.9346 24.1852 93.0722 24.1671 93.1497 24.2002C93.2272 24.2333 93.2802 24.1852 93.3079 24.0621V10.6834C93.277 10.5611 93.2233 10.5154 93.1497 10.5453C93.0762 10.5753 92.9346 10.5611 92.7345 10.4996L92.6198 10.4767V9.78394H97.2513C97.2355 9.78394 97.2355 9.87546 97.2513 10.0593C97.2355 10.3355 97.2355 10.4735 97.2513 10.4735L97.1358 10.4964C96.9207 10.558 96.7749 10.5772 96.6984 10.554C96.622 10.5309 96.5693 10.5806 96.5403 10.7031V24.085C96.5703 24.2081 96.6241 24.2578 96.6984 24.2349C96.7728 24.212 96.9207 24.2349 97.1358 24.2925L97.2513 24.3154C97.2355 24.3154 97.2355 24.4535 97.2513 24.7289C97.2355 24.9127 97.2355 25.005 97.2513 25.005H94.9355Z" fill="#1E1E1E"/>
<path d="M107.64 21.074H102.549L102.226 21.9246C102.197 22.0261 102.162 22.1259 102.122 22.2236C102.084 22.3152 102.049 22.4075 102.019 22.499L101.37 24.223C101.354 24.3303 101.396 24.369 101.497 24.3382C101.631 24.3089 101.77 24.3168 101.9 24.3611L101.969 24.384V25.0278H98.421V24.5907L98.4898 24.5678C98.6127 24.5379 98.6933 24.5379 98.7318 24.5678C98.7698 24.5986 98.8046 24.5907 98.8354 24.545L104.758 9.74048H106.393L106.762 10.6376L112.315 24.3382C112.361 24.415 112.407 24.4379 112.453 24.4069C112.5 24.3769 112.591 24.3769 112.73 24.4069L112.822 24.4298V25.005H108.26V24.3611L108.351 24.3382C108.552 24.2925 108.697 24.2885 108.79 24.3264C108.882 24.3643 108.905 24.3075 108.858 24.1544L108.49 23.1886C108.413 23.0208 108.336 22.833 108.26 22.6253C108.183 22.4175 108.091 22.1839 107.983 21.9246L107.64 21.074ZM106.857 19.0967L105.038 14.4762L103.283 19.0944L106.857 19.0967Z" fill="#1E1E1E"/>
<path fill-rule="evenodd" clip-rule="evenodd" d="M25.7451 9.06905H26.5906C25.656 8.26164 24.5916 7.61742 23.442 7.16356V4.52032H25.4596V0H13.3787V4.52032H15.3963V6.27906C15.8951 6.12224 16.404 5.9994 16.9195 5.91137V2.99829H14.902V1.51966H23.9356V2.99829H21.9188V8.19718L22.8837 8.57591C23.6417 8.87738 24.3576 9.27518 25.0135 9.75945L25.1195 9.49355C25.1695 9.36875 25.2558 9.26175 25.3673 9.18637C25.4788 9.11098 25.6104 9.07067 25.7451 9.07063" fill="#C49F72"/>
<path fill-rule="evenodd" clip-rule="evenodd" d="M28.3479 22.1795L28.1716 21.7456H27.8022C26.7463 23.7514 25.0033 25.3121 22.8907 26.1433C20.7781 26.9746 18.4365 27.0212 16.2924 26.2746C15.5587 25.0398 15.2644 23.5941 15.4572 22.1716C15.5555 23.6901 16.156 25.1332 17.1647 26.2746C20.3607 24.3872 15.496 20.663 16.0282 18.6636C15.1227 19.5502 14.5195 20.6983 14.3039 21.9456C14.0883 23.1929 14.2713 24.4763 14.8269 25.6141C13.6459 24.9573 12.6185 24.0574 11.8128 22.9741C10.6718 21.1373 10.1663 18.9778 10.3737 16.8268C10.5811 14.6759 11.4901 12.6522 12.9611 11.0661C11.8523 12.6493 11.2094 14.5104 11.1052 16.439C11.0009 18.3676 11.4394 20.2869 12.3711 21.9799C12.5428 19.4077 14.8569 19.5244 16.101 17.3925C18.1478 13.8853 14.7493 9.45807 19.747 6.89847C17.7691 6.73001 15.784 7.12764 14.0245 8.04473C12.2651 8.96182 10.8042 10.3604 9.81318 12.0764C8.82215 13.7924 8.34208 15.7547 8.42925 17.7332C8.51641 19.7117 9.16721 21.6244 10.3053 23.2471C8.41925 22.5492 6.34556 22.5451 4.45673 23.2355C2.5679 23.9259 0.987714 25.2656 0 27.0139C2.51425 25.5739 9.31434 30.7791 10.7126 25.7917C8.80197 24.8455 6.63062 24.5586 4.53893 24.9758C5.65547 24.5105 6.85514 24.2763 8.06514 24.2876C9.27514 24.2988 10.4702 24.5553 11.5779 25.0413L11.6498 25.1139C13.0555 26.5185 14.8174 27.5156 16.7471 27.9986L16.6617 27.9702C21.3762 29.5317 26.2315 27.0888 28.7133 23.1098C28.6809 23.0309 28.6485 22.9457 28.6161 22.8589C28.5417 22.6595 28.4523 22.4331 28.3479 22.1795Z" fill="#C49F72"/>
<path d="M46.6215 29.2728L46.0394 29.2673H45.746V30.6757C45.7531 30.7215 45.7689 30.7404 45.7919 30.7325C45.8362 30.7267 45.8813 30.7308 45.9239 30.7444L45.9532 30.7499C45.9585 30.7841 45.9585 30.819 45.9532 30.8532C45.9572 30.8998 45.9572 30.9227 45.9532 30.9227H44.7645V30.7499L44.7938 30.7444C44.828 30.7337 44.8642 30.7307 44.8997 30.7357C44.9043 30.7372 44.9092 30.7378 44.914 30.7373C44.9188 30.7368 44.9234 30.7352 44.9275 30.7327C44.9317 30.7302 44.9352 30.7269 44.9379 30.7229C44.9407 30.7189 44.9425 30.7144 44.9432 30.7096V27.3563C44.9425 27.3515 44.9407 27.347 44.9379 27.343C44.9352 27.339 44.9317 27.3357 44.9275 27.3332C44.9234 27.3307 44.9188 27.3292 44.914 27.3287C44.9092 27.3282 44.9043 27.3287 44.8997 27.3302C44.8642 27.3352 44.828 27.3322 44.7938 27.3216L44.7645 27.316V27.1425H47.3112V27.8897H47.1087L47.0921 27.8494C47.0702 27.7995 47.0574 27.746 47.0541 27.6916C47.0553 27.685 47.055 27.6783 47.0535 27.6718C47.0519 27.6653 47.049 27.6591 47.0451 27.6538C47.0411 27.6484 47.036 27.6439 47.0303 27.6405C47.0245 27.6371 47.0181 27.6349 47.0114 27.634H45.746V28.7773H46.6104C46.6413 28.7694 46.6531 28.756 46.6476 28.7371C46.6446 28.6996 46.6517 28.662 46.6682 28.6282L46.6737 28.6053H46.8809V29.444H46.6737L46.6682 29.4212C46.6543 29.3875 46.6491 29.3508 46.6531 29.3146C46.6595 29.2933 46.6531 29.2791 46.6278 29.2712" fill="#1E1E1E"/>
<path d="M50.7626 30.9361L50.2565 30.9306L49.1041 29.3273H49.0583V30.6686C49.0568 30.6874 49.0595 30.7062 49.0662 30.7238C49.069 30.7284 49.0729 30.7322 49.0774 30.735C49.0819 30.7379 49.087 30.7397 49.0923 30.7404C49.1067 30.7428 49.1214 30.7428 49.1358 30.7404C49.1583 30.7396 49.1807 30.7425 49.2022 30.7491L49.2251 30.7554V30.9298H48.0728V30.7578L48.1021 30.7515C48.1364 30.7412 48.1725 30.7383 48.2081 30.7428C48.2294 30.7491 48.2436 30.7428 48.2516 30.7175V27.3618C48.2508 27.3571 48.249 27.3525 48.2463 27.3485C48.2436 27.3446 48.24 27.3412 48.2359 27.3387C48.2317 27.3362 48.2271 27.3347 48.2223 27.3342C48.2175 27.3337 48.2126 27.3342 48.2081 27.3358C48.1725 27.3411 48.1363 27.3381 48.1021 27.3271L48.0728 27.3216V27.1496H49.4901C49.6892 27.1462 49.8881 27.1644 50.0833 27.204C50.2275 27.2324 50.363 27.2943 50.4787 27.3847C50.5812 27.4711 50.6572 27.5846 50.6978 27.7121C50.7451 27.8727 50.7672 28.0396 50.7634 28.2069C50.7634 28.4941 50.6946 28.7205 50.5562 28.8846C50.4179 29.0496 50.2364 29.1731 50.0319 29.2413L50.6962 30.166L50.8544 30.3846C50.8979 30.4461 50.9335 30.4974 50.9667 30.5424L51.0877 30.7089C51.1003 30.7248 51.1138 30.7401 51.128 30.7546C51.1308 30.7581 51.1343 30.7609 51.1382 30.763C51.1422 30.765 51.1465 30.7662 51.151 30.7665C51.1604 30.7674 51.17 30.7674 51.1794 30.7665C51.1973 30.7655 51.2151 30.7685 51.2316 30.7751L51.2546 30.7807V30.9385L50.7626 30.9361ZM49.0583 28.8389H49.1041C49.2019 28.8391 49.2994 28.8296 49.3952 28.8105C49.4837 28.793 49.5683 28.7599 49.6451 28.7126C49.7158 28.6686 49.7751 28.6086 49.8183 28.5375C49.8626 28.4574 49.8845 28.3669 49.8816 28.2755C49.8816 28.0388 49.8373 27.881 49.7487 27.7839C49.6601 27.6869 49.5051 27.6435 49.2829 27.6435H49.0583V28.8389Z" fill="#1E1E1E"/>
<path d="M53.8962 29.9537H52.6236L52.5445 30.166C52.5371 30.1914 52.5284 30.2164 52.5184 30.2409C52.5089 30.2641 52.5002 30.287 52.4923 30.3096L52.3341 30.7412C52.3341 30.768 52.3413 30.7775 52.3658 30.7696C52.3994 30.7622 52.4344 30.7641 52.467 30.7751L52.4844 30.7814V30.9392H51.5923V30.8296L51.6097 30.824C51.6405 30.8161 51.6603 30.8161 51.6706 30.824C51.6809 30.8319 51.688 30.8296 51.6959 30.8185L53.1764 27.1172H53.5853L53.6779 27.3413L55.0659 30.772C55.0777 30.7917 55.0888 30.7972 55.1007 30.7893C55.1228 30.7809 55.1473 30.7809 55.1695 30.7893L55.1924 30.7948V30.9384H54.052V30.7806L54.0749 30.7751C54.1107 30.7644 54.149 30.7644 54.1848 30.7751C54.2078 30.7846 54.2133 30.7696 54.2014 30.7317L54.1097 30.4903C54.0907 30.4485 54.0709 30.4011 54.052 30.3498C54.033 30.2985 54.01 30.2394 53.9832 30.1739L53.8962 29.9537ZM53.7016 29.4598L53.246 28.3047L52.8087 29.4598H53.7016Z" fill="#1E1E1E"/>
<path d="M59.2252 29.5096L59.2362 30.1013V30.2852C59.1359 30.4039 59.0273 30.5155 58.9112 30.6189C58.8111 30.707 58.6996 30.7813 58.5798 30.8399C58.462 30.8967 58.3369 30.9374 58.2081 30.9606C58.0628 30.987 57.9153 30.9997 57.7675 30.9985C57.464 31.0044 57.1609 30.9728 56.8651 30.9046C56.6432 30.8539 56.4381 30.7471 56.2696 30.5945C56.1115 30.4407 55.9981 30.2471 55.9414 30.0343C55.8666 29.7571 55.8315 29.4707 55.837 29.1837C55.8305 28.8538 55.8664 28.5245 55.9438 28.2037C56.0019 27.962 56.1218 27.7393 56.2917 27.5575C56.4672 27.3848 56.6856 27.2617 56.9245 27.2009C57.2379 27.1218 57.5606 27.0852 57.8838 27.092C58.0641 27.092 58.2223 27.0957 58.3583 27.103C58.4753 27.1085 58.5916 27.123 58.7063 27.1464C58.7916 27.1643 58.8748 27.1907 58.9547 27.2253C59.0177 27.2535 59.0752 27.2925 59.1247 27.3405L59.1532 28.1051C59.1371 28.1086 59.1207 28.1104 59.1042 28.1106H59.0006C58.983 28.1111 58.9656 28.1129 58.9484 28.1161L58.8851 28.053C58.7646 27.9319 58.6357 27.8196 58.4991 27.7169C58.4128 27.6525 58.3152 27.6049 58.2112 27.5764C58.1015 27.552 57.9892 27.5403 57.8767 27.5417C57.6862 27.5373 57.4961 27.5616 57.3128 27.6135C57.1687 27.6552 57.039 27.7357 56.9379 27.8463C56.8348 27.9677 56.7636 28.1128 56.7307 28.2684C56.6845 28.4788 56.6633 28.6938 56.6674 28.9091C56.6632 29.1542 56.6863 29.399 56.7362 29.639C56.7722 29.8174 56.8515 29.9843 56.9672 30.125C57.0777 30.2522 57.2227 30.3448 57.3848 30.3917C57.5878 30.4496 57.7985 30.4762 58.0096 30.4706C58.1497 30.4763 58.2893 30.451 58.4185 30.3964V29.5285C58.4105 29.5017 58.3955 29.4922 58.3726 29.5001C58.3337 29.506 58.294 29.5019 58.2571 29.4883L58.2342 29.4827V29.3099H59.396V29.4827L59.3731 29.4883C59.3416 29.4991 59.3079 29.502 59.275 29.4969C59.2521 29.4914 59.2362 29.4969 59.2291 29.5111" fill="#1E1E1E"/>
<path d="M62.7178 30.9361L62.2116 30.9306L61.0569 29.3273H61.011V30.6686C61.0096 30.6874 61.0123 30.7062 61.0189 30.7238C61.0218 30.7284 61.0256 30.7322 61.0301 30.735C61.0346 30.7379 61.0397 30.7397 61.045 30.7404C61.0594 30.7428 61.0741 30.7428 61.0885 30.7404C61.111 30.7396 61.1334 30.7425 61.1549 30.7491L61.1779 30.7554V30.9298H60.0287V30.7578L60.058 30.7515C60.0923 30.7412 60.1284 30.7383 60.164 30.7428C60.1853 30.7491 60.1996 30.7428 60.2075 30.7175V27.3618C60.2067 27.3571 60.2049 27.3525 60.2022 27.3485C60.1995 27.3446 60.1959 27.3412 60.1918 27.3387C60.1876 27.3362 60.183 27.3347 60.1782 27.3342C60.1734 27.3337 60.1685 27.3342 60.164 27.3358C60.1284 27.3411 60.0922 27.3381 60.058 27.3271L60.0287 27.3216V27.1496H61.446C61.6451 27.1462 61.844 27.1644 62.0392 27.204C62.1834 27.2324 62.3189 27.2943 62.4346 27.3847C62.5371 27.4711 62.6131 27.5846 62.6537 27.7121C62.701 27.8727 62.7231 28.0396 62.7193 28.2069C62.7193 28.4941 62.6505 28.7205 62.5121 28.8846C62.3738 29.0496 62.1923 29.1731 61.9878 29.2413L62.6561 30.166L62.8142 30.3846C62.8577 30.4461 62.8933 30.4974 62.9265 30.5424L63.0476 30.7089C63.0601 30.7248 63.0736 30.7401 63.0879 30.7546C63.0907 30.7581 63.0941 30.7609 63.0981 30.763C63.102 30.765 63.1064 30.7662 63.1108 30.7665C63.1203 30.7674 63.1298 30.7674 63.1393 30.7665C63.1571 30.7655 63.1749 30.7685 63.1915 30.7751L63.2144 30.7807V30.9385L62.7178 30.9361ZM61.011 28.8389H61.0569C61.1546 28.8391 61.2521 28.8296 61.3479 28.8105C61.4364 28.793 61.5211 28.7599 61.5978 28.7126C61.6685 28.6686 61.7279 28.6086 61.7711 28.5375C61.8154 28.4574 61.8372 28.3669 61.8343 28.2755C61.8343 28.0388 61.79 27.881 61.7015 27.7839C61.6129 27.6869 61.4579 27.6435 61.2356 27.6435H61.011V28.8389Z" fill="#1E1E1E"/>
<path d="M65.8489 29.9537H64.5764L64.4973 30.166C64.4899 30.1914 64.4812 30.2164 64.4712 30.2409C64.4617 30.2641 64.453 30.287 64.4451 30.3096L64.2869 30.7412C64.2869 30.768 64.294 30.7775 64.3185 30.7696C64.3522 30.7623 64.3871 30.7642 64.4198 30.7751L64.4372 30.7814V30.9392H63.545V30.8296L63.5624 30.824C63.5933 30.8161 63.6131 30.8161 63.6225 30.824C63.632 30.8319 63.6407 30.8296 63.6487 30.8185L65.1292 27.1172H65.5381L65.6306 27.3413L67.0186 30.772C67.0297 30.7917 67.0416 30.7972 67.0534 30.7893C67.0756 30.7809 67.1001 30.7809 67.1222 30.7893L67.1452 30.7948V30.9384H66.0047V30.7806L66.0277 30.7751C66.0635 30.7644 66.1017 30.7644 66.1376 30.7751C66.1605 30.7846 66.1661 30.7696 66.1542 30.7317L66.0625 30.4903C66.0435 30.4485 66.0237 30.4011 66.0047 30.3498C65.9857 30.2985 65.9628 30.2394 65.9359 30.1739L65.8489 29.9537ZM65.6536 29.4598L65.198 28.3047L64.7606 29.4598H65.6536Z" fill="#1E1E1E"/>
<path d="M70.9699 27.3618L70.9762 27.9252V30.9534H70.6599L70.3601 30.5976L68.5411 28.4254V30.7065C68.5482 30.7294 68.5656 30.738 68.5925 30.7325C68.6369 30.7276 68.6819 30.7305 68.7254 30.7412L68.7602 30.7467V30.9195H67.732V30.7467L67.7613 30.7412C67.7939 30.7272 67.8299 30.7231 67.8649 30.7294C67.8838 30.7373 67.8973 30.7294 67.9052 30.6946V27.3334C67.8973 27.3176 67.8815 27.3129 67.8585 27.3192C67.8259 27.3239 67.7926 27.3209 67.7613 27.3105L67.7375 27.3042V27.1322H68.5332L70.3356 29.3044V27.3508C70.3277 27.3271 70.3111 27.3192 70.2842 27.3247C70.2397 27.3293 70.1948 27.3264 70.1513 27.316L70.1165 27.3105V27.1377H71.1305C71.1305 27.1377 71.1305 27.1606 71.1305 27.2064C71.1357 27.2409 71.1357 27.276 71.1305 27.3105L71.1075 27.316C71.0766 27.3293 71.0428 27.3342 71.0095 27.3302C70.9905 27.3247 70.977 27.335 70.9691 27.3618" fill="#1E1E1E"/>
<path d="M75.1174 30.7294L75.1237 30.7184C75.0633 30.7697 74.9953 30.8112 74.922 30.8415C74.8344 30.8767 74.7436 30.9031 74.6507 30.9204C74.5319 30.9435 74.4117 30.9588 74.2909 30.9661C74.1548 30.9756 73.9959 30.9811 73.8163 30.9811C73.5132 30.9872 73.2106 30.9551 72.9155 30.8856C72.6951 30.8348 72.4916 30.728 72.3247 30.5756C72.1677 30.4213 72.0549 30.2278 71.9981 30.0153C71.9258 29.7378 71.8922 29.4515 71.8984 29.1648C71.892 28.8351 71.9266 28.506 72.0012 28.1848C72.0565 27.9441 72.1728 27.7216 72.339 27.5386C72.5069 27.3671 72.7181 27.2439 72.9503 27.182C73.2535 27.1029 73.5663 27.0663 73.8796 27.0731C74.0528 27.0731 74.2031 27.077 74.332 27.0849C74.4434 27.0901 74.5543 27.1044 74.6634 27.1275C74.7451 27.1452 74.8246 27.1717 74.9007 27.2064C74.9613 27.2354 75.0166 27.2744 75.0644 27.3216L75.0936 28.0862C75.0775 28.0896 75.0611 28.0915 75.0446 28.0917H74.9434C74.9261 28.0922 74.9089 28.094 74.892 28.0972L74.8287 28.0341C74.7061 27.9083 74.5739 27.7922 74.4332 27.6869C74.349 27.6237 74.253 27.5775 74.1509 27.5512C74.0614 27.5347 73.9706 27.527 73.8796 27.5283C73.6974 27.5246 73.5158 27.5488 73.341 27.6001C73.2024 27.6425 73.0787 27.7232 72.9843 27.8329C72.8864 27.9564 72.8192 28.1014 72.7882 28.2558C72.7444 28.4665 72.7242 28.6814 72.7281 28.8965C72.7244 29.1544 72.7438 29.4121 72.7858 29.6666C72.8124 29.8466 72.8751 30.0194 72.9701 30.1747C73.0505 30.3005 73.1683 30.3982 73.307 30.454C73.4697 30.5151 73.6426 30.5443 73.8163 30.54C73.972 30.5434 74.1274 30.524 74.2774 30.4824L74.3462 30.4651C74.4391 30.4283 74.5279 30.3821 74.6112 30.327C74.6643 30.2907 74.7145 30.2503 74.7615 30.2063C74.811 30.1605 74.8637 30.1079 74.9196 30.0485C74.9354 30.0284 74.9526 30.0094 74.971 29.9917H75.0169C75.0326 29.992 75.0482 29.9938 75.0636 29.9972H75.1126C75.1291 29.9974 75.1455 29.9993 75.1616 30.0027L75.1174 30.7294Z" fill="#1E1E1E"/>
<path d="M78.7578 30.6931L78.7468 30.9298H75.9992V30.757L76.0277 30.7515C76.0622 30.7408 76.0987 30.7378 76.1345 30.7428C76.139 30.7443 76.1438 30.7449 76.1485 30.7444C76.1533 30.7439 76.1579 30.7423 76.162 30.7398C76.166 30.7373 76.1695 30.734 76.1722 30.73C76.1748 30.726 76.1765 30.7215 76.1772 30.7167V27.3563C76.1765 27.3516 76.1748 27.347 76.1722 27.343C76.1695 27.3391 76.166 27.3357 76.162 27.3332C76.1579 27.3307 76.1533 27.3292 76.1485 27.3287C76.1438 27.3281 76.139 27.3287 76.1345 27.3302C76.0987 27.3352 76.0622 27.3322 76.0277 27.3216L75.9992 27.316V27.1425H78.6028V27.8897H78.4011L78.3837 27.8494C78.3616 27.7996 78.349 27.7461 78.3466 27.6916C78.3476 27.685 78.3472 27.6782 78.3456 27.6717C78.3439 27.6652 78.341 27.6591 78.3369 27.6537C78.3329 27.6483 78.3278 27.6438 78.322 27.6405C78.3162 27.6371 78.3098 27.6349 78.3031 27.634H76.9783V28.7773H77.842C77.8731 28.7694 77.8858 28.756 77.88 28.7371C77.8765 28.6997 77.8834 28.662 77.8997 28.6282L77.906 28.6053H78.1133V29.444H77.9029L77.8966 29.4212C77.8833 29.3873 77.8784 29.3508 77.8823 29.3146C77.8839 29.3101 77.8844 29.3052 77.8839 29.3004C77.8834 29.2957 77.8818 29.291 77.8794 29.2869C77.8769 29.2828 77.8735 29.2792 77.8695 29.2765C77.8655 29.2738 77.861 29.272 77.8562 29.2712H76.9862V30.4382H78.4565C78.4635 30.4369 78.4701 30.4342 78.476 30.4303C78.482 30.4264 78.4871 30.4214 78.491 30.4155C78.495 30.4097 78.4978 30.4031 78.4992 30.3961C78.5006 30.3892 78.5006 30.382 78.4992 30.3751C78.5024 30.3179 78.5152 30.2616 78.5372 30.2086L78.5538 30.1684H78.7555V30.6931H78.7578Z" fill="#1E1E1E"/>
<path d="M84.2419 28.4254V28.4191C84.2419 28.4001 84.2284 28.393 84.2015 28.3993C84.1633 28.4059 84.1243 28.4059 84.0861 28.3993L84.0576 28.3938V28.236H84.8698V28.3938L84.8469 28.3993C84.8135 28.4059 84.7791 28.4059 84.7457 28.3993C84.7291 28.393 84.7125 28.3993 84.6966 28.4191C84.5817 28.7184 84.4799 28.9856 84.3914 29.2207C84.3036 29.4574 84.2166 29.6665 84.1327 29.8519L84.4262 30.1391C84.5377 30.2425 84.6294 30.3285 84.703 30.3979L85.0193 30.7025L85.0597 30.7341C85.0672 30.7396 85.0764 30.7426 85.0858 30.7427H85.1174C85.1352 30.7441 85.1528 30.7478 85.1696 30.7538L85.1925 30.7601C85.1931 30.766 85.195 30.7716 85.1981 30.7767C85.206 30.7964 85.2131 30.8169 85.221 30.8406C85.2289 30.8642 85.2424 30.8903 85.2503 30.9092C85.2528 30.9167 85.2547 30.9243 85.2558 30.9321H84.1557L83.7175 30.5376C83.5706 30.699 83.3842 30.8197 83.1766 30.8879C82.9018 30.9687 82.6158 31.0055 82.3295 30.9968C82.1574 30.9998 81.9854 30.9834 81.817 30.9479C81.6935 30.9235 81.5778 30.8693 81.4801 30.7901C81.3906 30.7113 81.3255 30.6087 81.2926 30.4942C81.2508 30.3486 81.2313 30.1975 81.2349 30.046C81.2349 29.9119 81.2349 29.7951 81.2436 29.6957C81.246 29.5944 81.2734 29.4953 81.3234 29.4071C81.3733 29.3189 81.4442 29.2443 81.5299 29.1899C81.6653 29.0984 81.8101 29.0215 81.9617 28.9603C81.8739 28.8814 81.8036 28.8104 81.7537 28.7528C81.7047 28.6992 81.6644 28.6382 81.6343 28.5721C81.604 28.5018 81.5848 28.4273 81.5774 28.3512C81.5668 28.2442 81.5621 28.1368 81.5631 28.0293C81.56 27.8807 81.5795 27.7325 81.6209 27.5898C81.6543 27.4771 81.7193 27.3764 81.8083 27.2994C81.9084 27.2207 82.0258 27.1666 82.1508 27.1416C82.3214 27.1066 82.4954 27.0905 82.6696 27.0935C82.8202 27.091 82.9707 27.1034 83.1188 27.1306C83.2256 27.1491 83.3269 27.1912 83.4154 27.2537C83.4892 27.3114 83.5443 27.3896 83.5736 27.4785C83.6088 27.5878 83.6254 27.7023 83.6226 27.817C83.6254 27.9861 83.567 28.1506 83.4581 28.2802C83.2996 28.4482 83.1085 28.5824 82.8966 28.6747L83.8014 29.5489C83.8433 29.4416 83.8891 29.3241 83.939 29.1978L84.0971 28.7899L84.1984 28.5398C84.2142 28.5063 84.2249 28.4707 84.23 28.434L84.264 28.3646L84.2419 28.4254ZM82.214 29.1607V29.1663C82.1761 29.1951 82.1445 29.2314 82.1213 29.273C82.098 29.3145 82.0836 29.3604 82.0788 29.4077C82.0693 29.5034 82.0646 29.6376 82.0646 29.8101C82.0646 30.0626 82.1173 30.2378 82.2227 30.3356C82.3282 30.4334 82.5183 30.4824 82.793 30.4824C82.9108 30.4854 83.0281 30.4658 83.1386 30.4248C83.238 30.3841 83.3267 30.3212 83.398 30.2409L82.3145 29.2523C82.2955 29.2333 82.2781 29.2175 82.2631 29.2033C82.248 29.1891 82.2306 29.1757 82.2109 29.1607M82.6435 28.4191C82.7174 28.3506 82.7745 28.2661 82.8104 28.1721C82.8471 28.0669 82.8645 27.956 82.8618 27.8446C82.8708 27.7363 82.8512 27.6274 82.8048 27.529C82.7818 27.498 82.7512 27.4735 82.7158 27.4578C82.6805 27.4422 82.6416 27.436 82.6032 27.4399C82.5652 27.4366 82.5272 27.444 82.4932 27.4612C82.4593 27.4783 82.4308 27.5045 82.411 27.5369C82.3657 27.6399 82.3467 27.7523 82.3556 27.8644C82.3551 27.9239 82.358 27.9835 82.3643 28.0427C82.3698 28.0859 82.3835 28.1277 82.4046 28.1658C82.4296 28.2067 82.4596 28.2444 82.494 28.2778C82.5328 28.3165 82.5826 28.3638 82.6443 28.4214M84.0149 29.0077C84.0497 28.9201 84.0782 28.8451 84.1011 28.7836C84.124 28.722 84.1414 28.6739 84.1644 28.6139C84.1873 28.554 84.211 28.4924 84.234 28.4277L84.0149 29.0077Z" fill="#1E1E1E"/>
<path d="M89.0924 29.2728L88.5103 29.2673H88.2161V30.6757C88.224 30.7215 88.2398 30.7404 88.2628 30.7325C88.3071 30.7267 88.3522 30.7308 88.3949 30.7444L88.4241 30.7499C88.4294 30.7841 88.4294 30.819 88.4241 30.8532C88.4241 30.8998 88.4241 30.9227 88.4241 30.9227H87.2354V30.7499L87.2647 30.7444C87.2989 30.7337 87.3351 30.7307 87.3707 30.7357C87.3752 30.7372 87.3801 30.7378 87.3849 30.7373C87.3897 30.7368 87.3943 30.7352 87.3985 30.7327C87.4026 30.7302 87.4062 30.7269 87.4089 30.7229C87.4116 30.7189 87.4134 30.7144 87.4142 30.7096V27.3563C87.4134 27.3515 87.4116 27.347 87.4089 27.343C87.4062 27.339 87.4026 27.3357 87.3985 27.3332C87.3943 27.3307 87.3897 27.3292 87.3849 27.3287C87.3801 27.3282 87.3752 27.3287 87.3707 27.3302C87.3351 27.3352 87.2989 27.3322 87.2647 27.3216L87.2354 27.316V27.1425H89.7813V27.8897H89.5796L89.5622 27.8494C89.5405 27.7995 89.5279 27.746 89.525 27.6916C89.526 27.685 89.5257 27.6782 89.5241 27.6717C89.5224 27.6652 89.5195 27.6591 89.5154 27.6537C89.5114 27.6483 89.5063 27.6438 89.5005 27.6405C89.4947 27.6371 89.4882 27.6349 89.4815 27.634H88.2161V28.7773H89.0806C89.1106 28.7694 89.1233 28.756 89.1177 28.7371C89.1148 28.6996 89.1219 28.662 89.1383 28.6282L89.1438 28.6053H89.351V29.444H89.1438L89.1383 29.4212C89.1244 29.3875 89.1193 29.3508 89.1233 29.3146C89.1296 29.2933 89.1233 29.2791 89.098 29.2712" fill="#1E1E1E"/>
<path d="M93.2161 30.693L93.2225 30.9226H90.5572V30.7506L90.5864 30.7451C90.6209 30.7341 90.6574 30.7312 90.6932 30.7364C90.7138 30.7422 90.728 30.7335 90.7359 30.7104V27.3507C90.728 27.3271 90.7138 27.3184 90.6932 27.3247C90.6574 27.3292 90.621 27.3263 90.5864 27.316L90.5572 27.3105V27.1377H91.7324V27.3105L91.704 27.316C91.6642 27.3304 91.6212 27.3334 91.5798 27.3247C91.5592 27.3152 91.5466 27.3373 91.5426 27.391V30.4366H92.9077C92.9346 30.4248 92.9472 30.3972 92.9456 30.353C92.948 30.2798 92.9605 30.2073 92.9828 30.1376L93.0002 30.08H93.2185V30.693H93.2161Z" fill="#1E1E1E"/>
<path d="M96.1424 29.9537H94.8699L94.7908 30.166C94.7834 30.1914 94.7747 30.2164 94.7647 30.2409C94.7552 30.2641 94.7465 30.287 94.7386 30.3096L94.5804 30.7412C94.5804 30.768 94.5876 30.7775 94.6121 30.7696C94.6457 30.7623 94.6807 30.7642 94.7133 30.7751L94.7307 30.7814V30.9392H93.8433V30.8296L93.8607 30.824C93.8916 30.8161 93.9113 30.8161 93.9208 30.824C93.9303 30.8319 93.939 30.8296 93.9469 30.8185L95.4275 27.1172H95.8364L95.9289 27.3413L97.3122 30.772C97.3232 30.7917 97.3351 30.7972 97.347 30.7893C97.3691 30.7809 97.3936 30.7809 97.4158 30.7893L97.4387 30.7948V30.9384H96.2982V30.7806L96.3212 30.7751C96.357 30.7644 96.3953 30.7644 96.4311 30.7751C96.4541 30.7846 96.4596 30.7696 96.4477 30.7317L96.356 30.4903C96.337 30.4485 96.3172 30.4011 96.2982 30.3498C96.2793 30.2985 96.2563 30.2394 96.2294 30.1739L96.1424 29.9537ZM95.9471 29.4598L95.4915 28.3047L95.0542 29.4598H95.9471Z" fill="#1E1E1E"/>
<path d="M100.681 27.3563V27.3507C100.681 27.3271 100.676 27.3184 100.655 27.3247C100.625 27.3294 100.595 27.3265 100.567 27.316L100.544 27.3105V27.1377H101.407V27.2639L101.391 27.2703C101.36 27.2774 101.341 27.2766 101.333 27.2703C101.325 27.2639 101.312 27.275 101.294 27.3136L99.8106 30.9589H99.4072L99.344 30.7869L98.0422 27.3507C98.0224 27.316 98.0081 27.3026 97.9987 27.3105C97.9892 27.3184 97.9631 27.316 97.9196 27.3042L97.8958 27.2987C97.9011 27.2681 97.9011 27.2369 97.8958 27.2063C97.9001 27.1606 97.9001 27.1377 97.8958 27.1377H99.0371V27.3105L99.0134 27.316C98.9777 27.3301 98.9388 27.3339 98.9011 27.3271C98.8765 27.32 98.8663 27.331 98.8694 27.3618L99.6991 29.8788L100.681 27.3563Z" fill="#1E1E1E"/>
<path d="M102.058 29.0803C102.052 28.7659 102.086 28.452 102.16 28.1461C102.214 27.9144 102.329 27.7012 102.493 27.5283C102.662 27.3637 102.872 27.2469 103.102 27.1898C103.706 27.052 104.334 27.052 104.939 27.1898C105.167 27.2463 105.376 27.3623 105.544 27.5259C105.706 27.6956 105.821 27.9044 105.878 28.1319C105.953 28.4323 105.988 28.7415 105.981 29.0511C105.988 29.3581 105.953 29.6647 105.878 29.9624C105.821 30.1882 105.706 30.3951 105.544 30.5629C105.375 30.7244 105.166 30.8385 104.939 30.8935C104.334 31.0271 103.707 31.0271 103.102 30.8935C102.874 30.8382 102.664 30.7255 102.493 30.566C102.331 30.4019 102.216 30.1972 102.16 29.9735C102.086 29.6815 102.052 29.3812 102.058 29.0803ZM104.202 30.5455C104.347 30.5491 104.492 30.5288 104.63 30.4855C104.743 30.4483 104.843 30.3782 104.916 30.2843C104.996 30.1764 105.05 30.0514 105.074 29.919C105.108 29.7369 105.124 29.5519 105.121 29.3667C105.125 29.076 105.103 28.7855 105.054 28.4988C105.022 28.2953 104.949 28.1006 104.838 27.9267C104.744 27.7844 104.608 27.6742 104.449 27.6111C104.26 27.543 104.06 27.5108 103.859 27.5164C103.711 27.5129 103.563 27.5342 103.421 27.5796C103.306 27.619 103.206 27.6922 103.133 27.7894C103.053 27.9048 102.999 28.0362 102.975 28.1745C102.939 28.3667 102.923 28.5621 102.926 28.7576C102.922 29.0368 102.944 29.3158 102.992 29.5908C103.025 29.7884 103.099 29.9767 103.211 30.1431C103.309 30.2819 103.447 30.388 103.606 30.4477C103.798 30.5131 104 30.5441 104.202 30.5392" fill="#1E1E1E"/>
<path d="M106.85 27.3618V27.3507C106.842 27.3271 106.827 27.3192 106.807 27.3247C106.771 27.3292 106.735 27.3263 106.7 27.316L106.677 27.3105V27.1377H107.835V27.3105L107.811 27.316C107.777 27.3262 107.741 27.3292 107.705 27.3247C107.684 27.3192 107.67 27.3294 107.662 27.3563V27.9251L107.656 29.4361C107.653 29.5968 107.671 29.7571 107.708 29.9135C107.736 30.0306 107.792 30.139 107.872 30.2291C107.954 30.3135 108.058 30.374 108.172 30.4043C108.319 30.4434 108.471 30.4618 108.624 30.4587C108.866 30.4587 109.035 30.4079 109.13 30.3064C109.227 30.2046 109.274 30.0255 109.274 29.7691V27.3507C109.267 27.3271 109.25 27.3192 109.223 27.3247C109.179 27.3293 109.134 27.3264 109.09 27.316L109.056 27.3105V27.1377H110.084V27.3105L110.056 27.316C110.024 27.3261 109.991 27.3299 109.958 27.3271C109.935 27.3271 109.919 27.3271 109.912 27.3444V29.5884C109.917 29.8104 109.89 30.032 109.833 30.2465C109.786 30.4122 109.696 30.5623 109.57 30.6804C109.435 30.7985 109.272 30.88 109.096 30.9171C108.623 31.0129 108.137 31.0129 107.664 30.9171C107.488 30.881 107.324 30.7994 107.19 30.6804C107.066 30.5616 106.976 30.4117 106.93 30.2465C106.872 30.032 106.846 29.8104 106.851 29.5884V27.3618H106.85Z" fill="#1E1E1E"/>
<path d="M113.504 30.9361L112.997 30.9306L111.846 29.3273H111.799V30.6686C111.798 30.6874 111.801 30.7063 111.808 30.7238C111.81 30.7284 111.814 30.7322 111.819 30.735C111.823 30.7379 111.828 30.7397 111.834 30.7404C111.848 30.7428 111.863 30.7428 111.877 30.7404C111.899 30.7396 111.922 30.7425 111.943 30.7491L111.967 30.7554V30.9298H110.814V30.7578L110.843 30.7515C110.877 30.7412 110.914 30.7383 110.95 30.7428C110.971 30.7491 110.985 30.7428 110.993 30.7175V27.3618C110.992 27.3571 110.99 27.3525 110.988 27.3485C110.985 27.3446 110.981 27.3412 110.977 27.3387C110.973 27.3362 110.969 27.3347 110.964 27.3342C110.959 27.3337 110.954 27.3342 110.95 27.3358C110.914 27.341 110.877 27.3381 110.843 27.3271L110.814 27.3216V27.1496H112.232C112.431 27.1462 112.63 27.1644 112.825 27.204C112.969 27.2324 113.104 27.2943 113.22 27.3847C113.323 27.4711 113.399 27.5846 113.439 27.7121C113.487 27.8727 113.509 28.0396 113.505 28.2069C113.505 28.4941 113.436 28.7205 113.298 28.8846C113.159 29.0496 112.978 29.1731 112.773 29.2413L113.442 30.166C113.503 30.2504 113.556 30.3238 113.6 30.3846L113.712 30.5424L113.833 30.7089C113.853 30.7317 113.866 30.7475 113.873 30.7546C113.876 30.7581 113.88 30.7609 113.884 30.7629C113.888 30.765 113.893 30.7662 113.897 30.7665C113.907 30.7674 113.916 30.7674 113.926 30.7665C113.943 30.7656 113.961 30.7685 113.977 30.7751L114.001 30.7807V30.9385L113.504 30.9361ZM111.799 28.8389H111.846C111.943 28.8391 112.04 28.8296 112.136 28.8105C112.225 28.793 112.31 28.7599 112.387 28.7126C112.457 28.6683 112.516 28.6084 112.56 28.5375C112.604 28.4574 112.626 28.3669 112.623 28.2755C112.623 28.0388 112.579 27.881 112.49 27.7839C112.402 27.6869 112.247 27.6435 112.024 27.6435H111.799V28.8389Z" fill="#1E1E1E"/>
</g>
<defs>
<clipPath id="clip0_0_88">
<rect width="114" height="31" fill="white"/>
</clipPath>
</defs>
</svg>
