<svg width="12" height="11" viewBox="0 0 12 11" fill="none" xmlns="http://www.w3.org/2000/svg">
<path d="M9.125 1.375H2.875C2.117 1.375 1.5 1.94058 1.5 2.63542V8.36458C1.5 9.05942 2.117 9.625 2.875 9.625H9.125C9.883 9.625 10.5 9.05942 10.5 8.36458V2.63542C10.5 1.94058 9.883 1.375 9.125 1.375ZM4.5 7.79167C4.5 7.9184 4.38825 8.02083 4.25 8.02083H3.5C3.36175 8.02083 3.25 7.9184 3.25 7.79167V4.8125C3.25 4.68577 3.36175 4.58333 3.5 4.58333H4.25C4.38825 4.58333 4.5 4.68577 4.5 4.8125V7.79167ZM3.875 4.125C3.52975 4.125 3.25 3.86856 3.25 3.55208C3.25 3.2356 3.52975 2.97917 3.875 2.97917C4.22025 2.97917 4.5 3.2356 4.5 3.55208C4.5 3.86856 4.22025 4.125 3.875 4.125ZM8.75 7.79167C8.75 7.9184 8.63825 8.02083 8.5 8.02083H7.75C7.61175 8.02083 7.5 7.9184 7.5 7.79167V6.07292C7.5 5.7569 7.21975 5.5 6.875 5.5C6.53025 5.5 6.25 5.7569 6.25 6.07292V7.79167C6.25 7.9184 6.13825 8.02083 6 8.02083H5.25C5.11175 8.02083 5 7.9184 5 7.79167V4.8125C5 4.68577 5.11175 4.58333 5.25 4.58333H6C6.13825 4.58333 6.25 4.68577 6.25 4.8125V4.93648C6.51575 4.71763 6.8655 4.58333 7.25 4.58333C8.07725 4.58333 8.75 5.20002 8.75 5.95833V7.79167Z" fill="#C49F72"/>
</svg>
