<svg width="12" height="11" viewBox="0 0 12 11" fill="none" xmlns="http://www.w3.org/2000/svg">
<path d="M4.125 1.14587C2.53975 1.14587 1.25 2.32814 1.25 3.78129V7.21879C1.25 8.67194 2.53975 9.85421 4.125 9.85421H7.875C9.46025 9.85421 10.75 8.67194 10.75 7.21879V3.78129C10.75 2.32814 9.46025 1.14587 7.875 1.14587H4.125ZM8.5 2.75004C8.77625 2.75004 9 2.95514 9 3.20837C9 3.46137 8.77625 3.66671 8.5 3.66671C8.22375 3.66671 8 3.46137 8 3.20837C8 2.95514 8.22375 2.75004 8.5 2.75004ZM6 3.20837C7.3785 3.20837 8.5 4.23642 8.5 5.50004C8.5 6.76367 7.3785 7.79171 6 7.79171C4.6215 7.79171 3.5 6.76367 3.5 5.50004C3.5 4.23642 4.6215 3.20837 6 3.20837ZM6 3.89587C5.77019 3.89587 5.54262 3.93737 5.3303 4.01798C5.11798 4.0986 4.92507 4.21676 4.76256 4.36572C4.60006 4.51468 4.47116 4.69153 4.38321 4.88615C4.29526 5.08078 4.25 5.28938 4.25 5.50004C4.25 5.7107 4.29526 5.9193 4.38321 6.11393C4.47116 6.30855 4.60006 6.4854 4.76256 6.63436C4.92507 6.78332 5.11798 6.90148 5.3303 6.9821C5.54262 7.06271 5.77019 7.10421 6 7.10421C6.22981 7.10421 6.45738 7.06271 6.6697 6.9821C6.88202 6.90148 7.07493 6.78332 7.23744 6.63436C7.39994 6.4854 7.52884 6.30855 7.61679 6.11393C7.70474 5.9193 7.75 5.7107 7.75 5.50004C7.75 5.28938 7.70474 5.08078 7.61679 4.88615C7.52884 4.69153 7.39994 4.51468 7.23744 4.36572C7.07493 4.21676 6.88202 4.0986 6.6697 4.01798C6.45738 3.93737 6.22981 3.89587 6 3.89587Z" fill="#C49F72"/>
</svg>
