<svg width="12" height="11" viewBox="0 0 12 11" fill="none" xmlns="http://www.w3.org/2000/svg">
<path d="M11.1797 2.36156C11.106 2.29167 10.9925 2.27173 10.8957 2.31252L10.8547 2.32971C10.82 2.34438 10.7852 2.35904 10.7502 2.37348C10.852 2.22475 10.9327 2.06571 10.9885 1.90117C11.0195 1.81042 10.9857 1.71119 10.9037 1.65252C10.8217 1.59385 10.7087 1.58767 10.62 1.6374C10.3347 1.79621 10.0607 1.91056 9.77749 1.99031C9.34999 1.61013 8.76774 1.375 8.12499 1.375C6.81324 1.375 5.74999 2.34965 5.74999 3.55208C5.74999 3.55323 5.74999 3.5986 5.74999 3.66667L5.50024 3.64833C3.06949 3.38479 2.37749 1.88604 2.34874 1.82142C2.30224 1.71371 2.19974 1.6351 2.07599 1.6115C1.95249 1.58744 1.82424 1.62296 1.73474 1.70477C1.68524 1.75038 1.24999 2.1725 1.24999 2.97917C1.24999 3.55392 1.52949 4.02004 1.89124 4.38258C1.72274 4.2884 1.62449 4.21208 1.62199 4.21002C1.50674 4.1179 1.34174 4.09865 1.20474 4.16235C1.06824 4.22629 0.987738 4.3599 1.00149 4.49992C1.00624 4.54827 1.11274 5.4654 2.26849 6.15794L2.05774 6.193C1.92999 6.21431 1.82324 6.29475 1.77574 6.40567C1.72849 6.51681 1.74699 6.64217 1.82499 6.7375C1.85124 6.76981 2.33949 7.35167 3.39974 7.68625C2.83349 7.85927 2.05549 8.02083 1.12499 8.02083C0.977988 8.02083 0.844238 8.09967 0.783488 8.2225C0.722488 8.34533 0.745738 8.48948 0.842738 8.59077C0.882988 8.63317 1.85874 9.625 4.37499 9.625C8.55324 9.625 10.5 6.06948 10.5 3.66667V3.55208C10.5 3.51817 10.496 3.48494 10.4945 3.45148C11.0175 2.9881 11.2142 2.64046 11.2237 2.62327C11.271 2.53619 11.2535 2.43123 11.1797 2.36156Z" fill="#C49F72"/>
</svg>
