<svg width="7" height="11" viewBox="0 0 7 11" fill="none" xmlns="http://www.w3.org/2000/svg">
<path d="M3.125 10.5416C2.7805 10.5416 2.5 10.2847 2.5 9.96871V5.95829L1.3875 5.95898C1.04575 5.95898 0.76525 5.7046 0.76225 5.39156L0.755 4.70338C0.7535 4.54915 0.8175 4.40408 0.936 4.29477C1.054 4.18523 1.21175 4.12496 1.38 4.12496H2.5V3.09371C2.5 1.54775 3.3605 0.696167 4.92275 0.696167C5.54075 0.696167 6.08025 0.736271 6.08525 0.736729C6.3265 0.756438 6.508 0.938396 6.508 1.16V2.20729C6.508 2.4415 6.3 2.63217 6.0445 2.63217H5.3175C5.01325 2.63217 4.7655 2.85904 4.7655 3.13817L4.7515 4.12496H5.861C6.03925 4.12496 6.20925 4.19508 6.32775 4.317C6.44625 4.43892 6.5025 4.60185 6.48175 4.7641L6.3945 5.4516C6.358 5.74058 6.091 5.95829 5.774 5.95829H4.75V9.96871C4.75 10.2847 4.4695 10.5416 4.125 10.5416H3.125Z" fill="#C49F72"/>
</svg>
